<?xml version="1.0" encoding="utf-8"?>
<!-- Generator: Adobe Illustrator 12.0.1, SVG Export Plug-In . SVG Version: 6.00 Build 51448)  -->
<!DOCTYPE svg PUBLIC "-//W3C//DTD SVG 1.1//EN" "http://www.w3.org/Graphics/SVG/1.1/DTD/svg11.dtd" [
	<!ENTITY ns_svg "http://www.w3.org/2000/svg">
	<!ENTITY ns_xlink "http://www.w3.org/1999/xlink">
]>
<svg  version="1.1" id="Layer_1" xmlns="&ns_svg;" xmlns:xlink="&ns_xlink;" width="198" height="234" viewBox="0 0 198 234"
	 overflow="visible" enable-background="new 0 0 198 234" xml:space="preserve">
<g>
	<rect fill-rule="evenodd" clip-rule="evenodd" fill="#FFFFFF" width="198" height="234"/>
	<path fill-rule="evenodd" clip-rule="evenodd" fill="#DBDCDE" d="M0,0h198v156H0V0z M0,0"/>
	<rect y="156" fill-rule="evenodd" clip-rule="evenodd" fill="#66A3D3" width="198" height="78"/>
	<g>
		<path fill="#414142" d="M25.551,20.157v-2.04h-5.688v6.145h4.536v-1.8l1.104-0.024v4.728l-1.104,0.024v-1.848h-4.536v6.624h1.8
			v0.888h-5.712v-0.888h1.8V17.901h-1.8v-0.888h9.576v-0.672h1.104v3.815H25.551z"/>
		<path fill="#414142" d="M39.543,20.157v-2.04h-5.688v6.145h4.536v-1.8l1.104-0.024v4.728l-1.104,0.024v-1.848h-4.536v6.624h1.8
			v0.888h-5.712v-0.888h1.8V17.901h-1.8v-0.888h9.576v-0.672h1.104v3.815H39.543z"/>
	</g>
	<g>
		<path fill="#414142" d="M55.521,33.165c-1.512,0-2.496-0.312-3.696-1.079v0.983h-1.128v-4.32h1.128v1.896
			c1.464,0.984,2.112,1.224,3.168,1.224c1.92,0,3.216-1.008,3.216-2.52c0-1.368-0.936-2.376-3.528-3.72
			c-3.024-1.584-4.056-2.784-4.056-4.753c0-2.376,2.016-4.151,4.728-4.151c1.2,0,2.088,0.216,2.856,0.672v-0.864h1.104v4.104h-1.104
			v-1.704c-1.224-0.816-1.824-1.057-2.784-1.057c-1.632,0-2.688,0.984-2.688,2.473c0,1.224,0.696,1.92,3.696,3.647
			c3,1.729,3.864,2.784,3.864,4.752C60.297,31.245,58.233,33.165,55.521,33.165z"/>
		<path fill="#414142" d="M68.649,33.165c-3.36,0-5.496-2.159-5.496-5.544c0-3.479,2.424-5.928,5.856-5.928
			c1.248,0,1.944,0.24,3.192,1.104l-1.296,1.439c-0.84-0.864-1.08-1.032-2.04-1.632c-1.32,0.096-1.824,0.336-2.616,1.296
			c-0.72,0.888-1.104,1.944-1.104,3.168c0,2.688,1.848,4.896,4.08,4.896c0.768,0,1.368-0.192,2.688-0.864l0.48,0.912
			C70.809,32.949,70.161,33.165,68.649,33.165z"/>
		<path fill="#414142" d="M81.873,32.901c-0.312,0.096-0.648,0.168-0.84,0.168c-0.744,0-1.176-0.528-1.176-1.416
			c0-0.072,0-0.144,0-0.24c-1.008,1.248-1.92,1.752-3.192,1.752c-1.656,0-2.88-1.151-2.88-2.76c0-1.224,0.792-2.231,1.944-2.496
			l4.104-0.936v-2.712c0-0.96-0.72-1.656-1.68-1.656c-0.48,0-0.792,0.072-1.488,0.408v1.151l-2.136,0.624
			c-0.168-0.288-0.192-0.407-0.192-0.672c0-1.392,1.608-2.424,3.792-2.424c2.112,0,3.504,1.056,3.504,2.64v7.393h1.848v0.672
			L81.873,32.901z M79.833,27.934l-4.104,0.96v1.2c0,1.008,0.648,1.655,1.656,1.655c0.768,0,1.392-0.336,2.448-1.271V27.934z"/>
		<path fill="#414142" d="M84.729,32.854v-0.888h1.824V16.749H84.44v-0.647l3.456-0.937h0.456v16.801h1.8v0.888H84.729z"/>
		<path fill="#414142" d="M99.825,32.901c-0.312,0.096-0.648,0.168-0.84,0.168c-0.744,0-1.176-0.528-1.176-1.416
			c0-0.072,0-0.144,0-0.24c-1.008,1.248-1.92,1.752-3.192,1.752c-1.656,0-2.88-1.151-2.88-2.76c0-1.224,0.792-2.231,1.944-2.496
			l4.104-0.936v-2.712c0-0.96-0.72-1.656-1.68-1.656c-0.48,0-0.792,0.072-1.488,0.408v1.151l-2.136,0.624
			c-0.168-0.288-0.192-0.407-0.192-0.672c0-1.392,1.608-2.424,3.792-2.424c2.112,0,3.504,1.056,3.504,2.64v7.393h1.849v0.672
			L99.825,32.901z M97.785,27.934l-4.104,0.96v1.2c0,1.008,0.648,1.655,1.656,1.655c0.768,0,1.392-0.336,2.448-1.271V27.934z"/>
	</g>
	<g>
		<path d="M21.781,178.222c-0.267,0.082-0.553,0.144-0.717,0.144c-0.636,0-1.004-0.451-1.004-1.21c0-0.062,0-0.123,0-0.205
			c-0.861,1.066-1.64,1.497-2.727,1.497c-1.415,0-2.46-0.984-2.46-2.357c0-1.046,0.677-1.906,1.661-2.132l3.506-0.8v-2.316
			c0-0.82-0.615-1.415-1.435-1.415c-0.41,0-0.677,0.062-1.271,0.349v0.984l-1.825,0.533c-0.144-0.246-0.164-0.349-0.164-0.574
			c0-1.189,1.374-2.07,3.239-2.07c1.804,0,2.993,0.901,2.993,2.255v6.313h1.579v0.574L21.781,178.222z M20.039,173.979l-3.506,0.819
			v1.025c0,0.861,0.554,1.414,1.415,1.414c0.656,0,1.189-0.287,2.091-1.086V173.979z"/>
		<path d="M31.313,178.447c-0.902,0-1.66-0.123-2.87-0.431v-13.592H26.66v-0.554l2.952-0.799h0.369v14.165
			c0.677,0.267,0.964,0.349,1.476,0.349c2.009,0,3.424-1.742,3.424-4.202c0-2.234-1.005-3.629-2.645-3.629H30.74v-0.677
			c1.045-0.348,1.538-0.43,2.091-0.43c2.235,0,3.813,1.906,3.813,4.592C36.644,176.377,34.532,178.447,31.313,178.447z"/>
		<path d="M45.643,178.447c-2.87,0-4.694-1.845-4.694-4.735c0-2.973,2.07-5.063,5.002-5.063c1.066,0,1.66,0.205,2.727,0.942
			l-1.107,1.23c-0.717-0.738-0.922-0.882-1.742-1.395c-1.127,0.082-1.558,0.287-2.235,1.107c-0.615,0.759-0.943,1.66-0.943,2.706
			c0,2.296,1.579,4.182,3.485,4.182c0.656,0,1.168-0.164,2.296-0.737l0.41,0.778C47.487,178.263,46.934,178.447,45.643,178.447z"/>
		<path d="M59.849,178.386h-0.39v-1.436c-1.127,1.128-1.845,1.497-2.89,1.497c-2.132,0-3.813-2.07-3.813-4.694
			c0-2.829,2.173-5.104,4.859-5.104c0.697,0,1.066,0.103,1.845,0.512v-4.735h-1.783v-0.554l2.952-0.799h0.39v13.96h1.784v0.574
			L59.849,178.386z M59.459,171.211c0-1.271-0.41-1.702-1.619-1.702c-1.989,0-3.321,1.579-3.321,3.937
			c0,2.296,1.004,3.669,2.686,3.669c0.636,0,0.943-0.123,1.661-0.676c0.123-0.103,0.328-0.267,0.594-0.472V171.211z"/>
		<path d="M68.315,172.933v0.226c0,2.562,1.353,4.346,3.301,4.346c0.82,0,1.374-0.205,2.521-0.942l0.389,0.758
			c-1.537,0.882-2.255,1.128-3.444,1.128c-2.604,0-4.449-2.009-4.449-4.838c0-2.87,1.866-4.961,4.408-4.961
			c2.214,0,3.731,1.517,3.731,3.73v0.554H68.315z M73.092,171.621c0-1.23-0.841-2.112-2.03-2.112c-1.497,0-2.542,1.005-2.727,2.604
			h4.756V171.621z"/>
		<path d="M86.499,165.204c-0.841-0.738-1.066-0.902-2.03-1.395c-1.64,0.308-2.316,1.456-2.316,3.937v1.353h2.357v0.943h-2.357v7.38
			h1.968v0.759h-5.064v-0.759h1.558v-7.38h-1.783v-0.554l1.783-0.451v-1.681c0-2.583,1.681-4.325,4.162-4.325
			c1.004,0,1.907,0.246,2.85,0.778L86.499,165.204z"/>
		<path d="M96.175,170.206c0.492,0.574,0.656,1.066,0.656,1.906c0,2.173-1.497,3.547-3.916,3.547c-0.615,0-0.84-0.041-1.456-0.246
			c-0.615,0.636-0.861,1.025-0.861,1.395c0,0.348,0.205,0.532,0.595,0.532h5.125c0.984,0,1.558,0.697,1.558,1.887
			c0,2.316-2.337,4.202-5.228,4.202c-1.763,0-2.87-0.574-3.998-2.07c0.451-1.107,0.615-1.395,1.599-2.624
			c-0.594-0.123-0.902-0.308-1.538-1.025c0.697-1.229,1.005-1.599,2.153-2.562c-1.209-0.697-1.763-1.619-1.763-2.911
			c0-2.193,1.517-3.587,3.854-3.587c0.841,0,1.127,0.082,2.235,0.614h1.312l1.456-0.348v1.291H96.175z M95.663,178.837h-4.653
			c-0.533,0.758-0.677,1.147-0.677,1.701c0,1.21,1.148,2.07,2.788,2.07c1.804,0,3.321-1.25,3.321-2.706
			C96.442,179.247,96.134,178.837,95.663,178.837z M92.977,169.427c-1.374,0-2.234,1.046-2.234,2.706
			c0,1.661,0.861,2.727,2.234,2.727c1.353,0,2.234-1.065,2.234-2.727C95.211,170.473,94.33,169.427,92.977,169.427z"/>
		<path d="M107.921,178.181v-0.759h1.559v-6.006c0-1.087-0.554-1.764-1.456-1.764c-0.901,0-1.394,0.39-3.177,2.439v5.33h1.537v0.759
			h-4.633v-0.759h1.558v-12.997h-1.804v-0.554l2.952-0.799h0.39v7.913c1.537-1.784,2.419-2.337,3.71-2.337
			c1.518,0,2.46,0.983,2.46,2.562v6.211h1.559v0.759H107.921z"/>
		<path d="M116.634,178.181v-0.759h1.558v-7.38h-1.783v-0.554l2.952-0.799h0.369v8.732h1.558v0.759H116.634z M118.868,166.25
			c-0.595,0-1.066-0.472-1.066-1.087c0-0.595,0.472-1.066,1.066-1.066c0.615,0,1.086,0.472,1.086,1.066
			C119.954,165.778,119.483,166.25,118.868,166.25z"/>
		<path d="M126.063,183.429l-0.491-0.39c1.168-1.968,1.332-2.46,1.332-4.182v-8.815h-1.824v-0.554l2.952-0.799h0.39v10.987
			C127.684,181.461,127.355,181.974,126.063,183.429z M127.561,166.25c-0.595,0-1.087-0.472-1.087-1.087
			c0-0.595,0.492-1.066,1.087-1.066s1.086,0.472,1.086,1.066C128.646,165.778,128.155,166.25,127.561,166.25z"/>
		<path d="M133.71,178.181v-0.759h1.558v-12.997h-1.804v-0.554l2.952-0.799h0.39v14.35h1.537v0.759H133.71z M141.172,178.181
			l-4.202-5.043l3.669-3.485h-1.332v-0.758h4.079v0.758h-1.578l-3.178,3.034l3.915,4.735h1.169v0.759H141.172z"/>
		<path d="M147.097,178.181v-0.759h1.558v-12.997h-1.804v-0.554l2.952-0.799h0.39v14.35h1.537v0.759H147.097z"/>
		<path d="M168.17,178.181v-0.759h1.558v-6.006c0-1.107-0.553-1.743-1.455-1.743c-0.677,0-1.21,0.308-2.091,1.251l-1.087,1.168v5.33
			h1.538v0.759h-4.634v-0.759h1.538v-6.006c0-1.087-0.554-1.764-1.456-1.764c-0.881,0-1.394,0.39-3.177,2.439v5.33h1.558v0.759
			h-4.653v-0.759h1.558v-7.38h-1.783v-0.554l2.952-0.799h0.369v2.296c1.537-1.784,2.419-2.337,3.73-2.337
			c1.456,0,2.255,0.758,2.46,2.337c1.538-1.784,2.419-2.337,3.711-2.337c1.517,0,2.46,0.983,2.46,2.542v6.231h1.537v0.759H168.17z"
			/>
	</g>
	<g>
		<path d="M21.064,199.181v-0.759h1.538v-6.006c0-1.087-0.554-1.764-1.456-1.764c-0.882,0-1.394,0.39-3.178,2.439v5.33h1.558v0.759
			h-4.654v-0.759h1.558v-7.38h-1.783v-0.554l2.952-0.799h0.369v2.296c1.538-1.784,2.419-2.337,3.731-2.337
			c1.517,0,2.46,0.983,2.46,2.562v6.211h1.538v0.759H21.064z"/>
		<path d="M34.245,199.447c-2.48,0-4.49-2.193-4.49-4.899s2.009-4.899,4.49-4.899s4.49,2.193,4.49,4.899
			S36.726,199.447,34.245,199.447z M34.245,190.509c-1.538,0-2.727,1.764-2.727,4.039c0,2.255,1.189,4.038,2.727,4.038
			s2.747-1.763,2.747-4.038S35.783,190.509,34.245,190.509z"/>
		<path d="M47.939,199.447c-0.779,0-1.086-0.103-1.825-0.492v4.448h1.866v0.759h-4.961v-0.759h1.558v-12.361h-1.804v-0.574
			l2.952-0.778h0.39v1.414c1.045-1.066,1.825-1.435,2.993-1.435c2.173,0,3.649,1.804,3.649,4.469
			C52.756,197.213,50.727,199.447,47.939,199.447z M48.39,190.939c-0.799,0-1.333,0.267-2.275,1.189v4.715
			c0,1.271,0.431,1.742,1.599,1.742c1.947,0,3.28-1.619,3.28-4.018C50.993,192.334,49.989,190.939,48.39,190.939z"/>
		<path d="M61.838,204.162v-0.759h1.947v-12.566c-0.574-0.287-0.799-0.328-1.374-0.328c-2.193,0-3.567,1.518-3.567,3.957
			c0,2.193,1.148,3.854,2.645,3.854h1.517v0.697c-1.107,0.328-1.599,0.431-2.111,0.431c-2.132,0-3.813-2.07-3.813-4.694
			c0-2.03,1.148-3.937,2.788-4.654c0.718-0.307,1.538-0.471,2.562-0.471c1.066,0,1.722,0.103,2.911,0.45v13.366l1.538-0.021v0.738
			H61.838z"/>
		<path d="M76.598,191.821c-0.41-0.39-0.697-0.574-0.902-0.574c-0.369,0-0.738,0.349-1.866,1.722v5.453h1.968v0.759h-5.064v-0.759
			h1.558v-7.38h-1.783v-0.554l2.952-0.799h0.369v2.296c1.476-1.887,2.009-2.337,2.747-2.337c0.246,0,0.451,0.062,0.574,0.185
			l0.635,0.553L76.598,191.821z"/>
		<path d="M85.27,199.447c-1.148,0-2.009-0.267-2.604-0.82v0.738h-0.82v-2.911h0.943v0.554c0,0.881,1.148,1.66,2.419,1.66
			c1.127,0,1.968-0.595,1.968-1.414c0-0.82-0.574-1.271-2.727-2.111c-1.968-0.759-2.665-1.518-2.665-2.809
			c0-1.6,1.292-2.686,3.178-2.686c0.902,0,1.599,0.226,2.173,0.696l0.123-0.737h0.881l-0.492,2.952h-0.882
			c0.082-0.226,0.123-0.492,0.123-0.677c0-0.8-0.922-1.456-2.029-1.456c-1.066,0-1.763,0.574-1.763,1.456
			c0,0.881,0.144,0.983,2.624,1.988c2.009,0.8,2.645,1.476,2.645,2.788C88.365,198.299,87.094,199.447,85.27,199.447z"/>
		<path d="M96.236,199.365c-1.189,0-1.906-0.738-1.906-1.988v-6.335h-1.784v-0.554l1.784-0.451v-2.828h1.476v2.89h2.542v0.943
			h-2.542v6.15c0,0.778,0.267,1.065,0.943,1.065c0.43,0,0.697-0.082,1.394-0.491l0.348,0.553
			C97.405,199.181,96.995,199.365,96.236,199.365z"/>
		<path d="M109.992,199.345h-0.369v-2.316c-1.477,1.783-2.439,2.419-3.711,2.419c-1.537,0-2.48-1.005-2.48-2.645v-5.761h-1.783
			v-0.554l2.952-0.799h0.39v6.867c0,1.251,0.491,1.865,1.496,1.865c0.759,0,1.271-0.328,2.193-1.414
			c0.205-0.226,0.513-0.574,0.943-1.046v-4.92h-1.559v-0.636l2.706-0.717h0.39v8.343h1.784v0.574L109.992,199.345z"/>
		<path d="M124.321,190.652l-3.342,8.795h-0.41l-3.587-8.774l-0.861-0.021v-0.758h3.977v0.758h-1.435l2.439,6.048l2.296-6.048
			h-1.373v-0.758h3.157v0.758H124.321z"/>
		<path d="M141.767,190.652l-3.321,8.795h-0.41l-2.604-6.376l-2.46,6.376h-0.41l-3.546-8.795h-0.861v-0.758h3.956v0.758h-1.414
			l2.398,6.048l1.845-4.797l-0.512-1.251h-1.169v-0.758h4.284v0.758h-1.435l2.46,6.048l2.296-6.048h-1.373v-0.758h3.136v0.758
			H141.767z"/>
		<path d="M150.684,199.181v-0.759h1.169l-1.989-3.014l-2.296,3.014h1.21v0.759H145.6v-0.759h0.861l2.911-3.751l-2.706-4.019h-0.861
			v-0.758h3.956v0.758h-1.271l1.845,2.829l2.111-2.829h-0.983v-0.758h2.952v0.758h-0.861l-2.747,3.506l2.891,4.264h0.861v0.759
			H150.684z"/>
		<path d="M165.751,190.652l-3.465,9c-0.472,1.229-1.229,2.686-1.906,3.669c-0.185,0.246-0.451,0.615-0.82,1.107l-1.332-1.373
			c1.127-0.636,1.517-0.943,2.152-1.764c0.574-0.759,0.841-1.25,1.332-2.501l-3.32-8.139h-0.861v-0.758h3.977v0.758h-1.455
			l2.48,6.048l2.296-6.048h-1.373v-0.758h3.157v0.758H165.751z"/>
		<path d="M172.435,198.237h5.084v-1.578l0.882,0.021v2.501h-8.036v-0.759l5.965-7.585h-4.776l-0.267,1.723h-0.881l0.431-3.075
			h0.881l-0.062,0.41h6.786v0.614L172.435,198.237z"/>
	</g>
	<g>
		<path fill="#FFFFFF" d="M59.649,219.447c-2.768,0-4.981-2.234-4.981-4.981c0-2.768,2.214-5.002,4.981-5.002
			c2.747,0,4.981,2.234,4.981,5.002C64.631,217.213,62.396,219.447,59.649,219.447z M59.649,210.837
			c-2.009,0-3.628,1.62-3.628,3.629c0,1.988,1.62,3.607,3.628,3.607c1.989,0,3.629-1.619,3.629-3.607
			C63.278,212.457,61.638,210.837,59.649,210.837z"/>
		<path fill="#FFFFFF" d="M67.521,219.181v-0.759h1.989v-7.934h-1.989v-0.758h5.535v0.758h-2.009v7.934h2.009v0.759H67.521z"/>
	</g>
	<g>
		<path fill="#FFFFFF" d="M75.68,219.181v-0.718l3.383-2.624c1.947-1.496,2.501-2.275,2.501-3.505c0-1.107-0.738-1.805-1.886-1.805
			c-1.066,0-1.845,0.431-2.911,1.62l-0.635-0.615c1.497-1.578,2.398-2.07,3.854-2.07c1.907,0,3.259,1.127,3.259,2.706
			c0,1.147-0.717,2.296-2.07,3.279l-3.218,2.358h5.391v-1.969l0.923-0.021v3.362H75.68z"/>
		<path fill="#FFFFFF" d="M92.531,222.789c-0.799,0.614-1.599,1.045-2.398,1.291c-0.615,0.205-1.066,0.267-2.173,0.349v-0.882
			c1.722-0.164,2.727-0.553,3.67-1.353c0.943-0.8,1.497-1.886,1.497-2.952c0-1.619-1.189-2.85-2.768-2.85h-0.902v-0.677
			c2.03-1.188,2.788-2.152,2.788-3.566c0-0.943-0.594-1.641-1.435-1.641c-0.656,0-1.086,0.287-1.988,1.312l-0.656-0.615
			c1.046-1.229,1.989-1.742,3.239-1.742c1.476,0,2.624,1.106,2.624,2.562c0,1.271-0.615,2.07-2.316,3.137
			c1.845,0.122,3.034,1.496,3.034,3.546C94.745,220.329,94.048,221.62,92.531,222.789z"/>
		<path fill="#FFFFFF" d="M105.896,219.181v4.981h-1.537v-4.981h-6.355v-0.369l7.38-9.348h0.512v8.527h1.436v-0.963h0.738v2.152
			H105.896z M104.359,212.375l-4.408,5.616h4.408V212.375z"/>
		<path fill="#FFFFFF" d="M115.818,223.076c-1.209,0.901-2.009,1.168-3.977,1.353v-0.882c1.435-0.164,2.009-0.369,2.85-0.963
			c1.209-0.841,1.804-1.989,1.804-3.465c0-2.214-1.23-3.424-3.834-3.772v-5.616h4.593v-0.841h0.819v2.398h-4.51v2.727
			c3.014,0.41,4.735,2.091,4.735,4.633C118.299,220.288,117.377,221.928,115.818,223.076z"/>
		<path fill="#FFFFFF" d="M127.606,219.447c-2.891,0-4.839-2.419-4.839-6.048c0-3.977,2.276-7.544,5.638-8.814
			c1.189-0.451,1.846-0.554,3.547-0.554l-0.021,0.84c-1.496,0.062-2.111,0.205-3.116,0.677c-0.901,0.431-1.722,1.046-2.337,1.784
			c-1.229,1.476-1.947,3.73-1.947,5.965c0,2.952,1.435,5.351,3.239,5.351c0.942,0,2.009-0.8,2.562-1.906
			c0.286-0.554,0.43-1.148,0.43-1.742c0-1.271-0.758-2.583-1.783-3.096c-0.431-0.205-1.005-0.328-1.701-0.328h-0.984l0.185-0.82
			c0.718-0.164,1.025-0.205,1.517-0.205c2.583,0,4.531,1.805,4.531,4.224C132.526,217.336,130.312,219.447,127.606,219.447z"/>
		<path fill="#FFFFFF" d="M141.177,218.791c-0.226,0.513-0.595,1.21-1.046,2.07c-0.472,0.861-0.881,1.538-1.188,2.03
			c-0.205,0.348-0.554,0.86-1.046,1.537l-1.414-1.148c1.147-1.024,1.537-1.455,2.501-2.828c0.655-0.902,1.147-1.702,1.455-2.379
			l3.178-6.97h-6.458v1.886h-1.024v-3.854h1.024v0.595h7.79v0.778L141.177,218.791z"/>
		<path fill="#FFFFFF" d="M152.801,219.447c-1.722,0-2.706-0.41-3.506-1.415c-0.533-0.655-0.819-1.435-0.819-2.214
			c0-1.168,0.655-2.275,1.886-3.32l1.517-1.271l-1.476-1.271c-0.861-0.738-1.354-1.723-1.354-2.665c0-1.805,1.743-3.26,3.937-3.26
			c2.009,0,3.648,1.373,3.648,3.075c0,0.881-0.594,1.927-1.517,2.706l-1.128,0.963l1.825,1.579c1.291,1.106,1.722,1.845,1.722,2.89
			C157.536,217.664,155.527,219.447,152.801,219.447z M154.522,213.502l-1.927-1.66l-1.394,1.229c-0.82,0.718-1.21,1.661-1.21,2.747
			c0,1.743,1.107,2.85,2.87,2.85c1.804,0,3.014-1.127,3.014-2.809C155.876,214.896,155.589,214.404,154.522,213.502z
			 M152.985,204.81c-1.292,0-2.193,0.841-2.193,2.112c0,0.819,0.39,1.619,1.065,2.152l1.436,1.147l0.84-0.778
			c0.656-0.595,1.046-1.477,1.046-2.398C155.179,205.691,154.317,204.81,152.985,204.81z"/>
		<path fill="#FFFFFF" d="M165.92,223.916c-1.107,0.41-1.742,0.492-3.608,0.513l0.021-0.841c1.497-0.103,2.091-0.246,3.116-0.717
			c0.943-0.451,1.742-1.046,2.337-1.764c1.169-1.353,1.947-3.689,1.947-5.802c0-2.89-1.353-5.063-3.177-5.063
			c-1.661,0-3.055,1.723-3.055,3.752s1.353,3.342,3.464,3.342h1.005l-0.205,0.819c-0.759,0.164-1.086,0.205-1.558,0.205
			c-2.501,0-4.47-1.886-4.47-4.264c0-2.521,2.215-4.633,4.859-4.633c2.809,0,4.879,2.542,4.879,5.944
			C171.476,218.996,169.036,222.748,165.92,223.916z"/>
	</g>
	<g>
		<path fill="#FFFFFF" d="M173.029,106.762c-1.547,0.476-3.213,0.833-4.164,0.833c-3.689,0-5.832-2.618-5.832-7.021
			c0-0.356,0-0.714,0-1.189c-4.998,6.188-9.52,8.687-15.826,8.687c-8.211,0-14.28-5.712-14.28-13.685
			c0-6.069,3.927-11.067,9.64-12.376l20.349-4.642V63.922c0-4.76-3.57-8.211-8.33-8.211c-2.38,0-3.927,0.356-7.378,2.022v5.712
			l-10.591,3.095c-0.833-1.429-0.952-2.023-0.952-3.332c0-6.902,7.973-12.02,18.802-12.02c10.472,0,17.374,5.236,17.374,13.09
			v36.652h9.163v3.332L173.029,106.762z M162.915,82.129l-20.349,4.76v5.95c0,4.998,3.213,8.211,8.211,8.211
			c3.808,0,6.901-1.666,12.138-6.308V82.129z"/>
	</g>
	<g>
		<path d="M26.378,71.912v-0.925h2l-1.75-4.5l-6.4-0.025l-1.825,4.5h2.075v0.95h-4.775v-0.95h1.3l6.5-16.075h0.9l6.25,16.075h1.425
			v0.95H26.378z M23.528,58.262l-2.825,7.025h5.5L23.528,58.262z"/>
		<path d="M42.328,71.962c-0.325,0.101-0.675,0.175-0.875,0.175c-0.775,0-1.225-0.55-1.225-1.475c0-0.075,0-0.15,0-0.25
			c-1.05,1.3-2,1.825-3.325,1.825c-1.725,0-3-1.2-3-2.875c0-1.275,0.825-2.325,2.025-2.601l4.275-0.975v-2.825
			c0-1-0.75-1.725-1.75-1.725c-0.5,0-0.825,0.075-1.55,0.425v1.2l-2.225,0.649c-0.175-0.3-0.2-0.425-0.2-0.699
			c0-1.45,1.675-2.525,3.95-2.525c2.2,0,3.65,1.1,3.65,2.75v7.7h1.925v0.7L42.328,71.962z M40.203,66.787l-4.275,1v1.25
			c0,1.05,0.675,1.725,1.725,1.725c0.8,0,1.45-0.35,2.55-1.324V66.787z"/>
	</g>
	<g>
		<path d="M31.882,101.911h-5.85l0.15-0.925h2.125l-1.025-4.525h-6.3l-2.525,4.525h1.95l-0.125,0.925h-4.925l0.15-0.925h1.625
			l9.05-16.101h0.425l3.7,16.101h1.725L31.882,101.911z M27.032,95.286l-1.525-6.875l-3.875,6.875H27.032z"/>
		<path d="M40.482,102.136c-0.25-0.85-0.325-1.375-0.325-2.175c0-0.575,0.075-1.375,0.175-1.925l0.175-1.025
			c-1.325,3-3.725,5.226-5.65,5.226c-0.875,0-1.375-1.25-1.375-3.4c0-2.149,0.7-4.524,1.85-6.2c1.15-1.675,2.275-2.35,3.95-2.35
			c1,0,1.55,0.2,2.45,0.85l0.225-0.824h1.375l-1.275,7.175c-0.15,0.774-0.2,1.375-0.2,1.825v0.725c0.9-0.85,1.35-1.4,2.15-2.625
			l0.75,0.475c-0.975,1.5-1.65,2.351-2.425,3.101C41.607,101.687,41.157,101.937,40.482,102.136z M41.357,92.511
			c-0.875-0.925-1.475-1.274-2.2-1.274c-2,0-3.75,3.225-3.75,6.899c0,1.351,0.275,2.351,0.675,2.351
			c0.125,0,0.525-0.226,0.925-0.476c0.25-0.199,0.525-0.425,0.8-0.675c0.775-0.75,1.475-1.725,2.1-2.925
			C40.507,95.261,40.882,94.261,41.357,92.511z"/>
	</g>
	<g>
		<path d="M65.937,77.688v-0.025c-1.775-0.9-2.45-1.3-3.4-2.075c-1.025-0.825-1.675-1.55-3.1-3.425
			c-2.225-0.3-3.7-1.075-5.075-2.625s-2.225-3.775-2.225-5.85c0-4.7,3.675-8.575,8.075-8.575c4.35,0,8,3.899,8,8.55
			c0,3.025-1.625,5.975-4.125,7.475c-0.65,0.4-1.075,0.575-2.15,0.875c1.725,2.051,3.525,3.45,4.45,3.45
			c0.375,0,0.75-0.2,1.65-0.875l0.575,0.7L65.937,77.688z M60.237,56.412c-3.275,0-5.625,3-5.625,7.25c0,4.225,2.35,7.275,5.6,7.275
			c3.2,0,5.525-3.075,5.525-7.275S63.412,56.412,60.237,56.412z"/>
		<path d="M76.787,77.987v-0.925h2.375V61.737c-0.7-0.351-0.975-0.4-1.675-0.4c-2.675,0-4.35,1.851-4.35,4.825
			c0,2.675,1.4,4.7,3.225,4.7h1.85v0.85c-1.35,0.4-1.95,0.525-2.575,0.525c-2.6,0-4.65-2.525-4.65-5.726c0-2.475,1.4-4.8,3.4-5.675
			c0.875-0.375,1.875-0.575,3.125-0.575c1.3,0,2.1,0.125,3.55,0.551v16.3l1.875-0.025v0.9H76.787z"/>
	</g>
	<g>
		<path d="M72.692,104.511c-0.3,2.875-1.175,3.801-3.65,3.801c-2.375,0-4.775-0.575-8.15-1.9c-1.75-0.675-2.75-1.1-5.325-2.275
			c2.1-0.625,2.55-0.8,5.275-1.975c-2.125-0.175-3.375-0.725-4.675-2.15c-1.2-1.3-1.825-2.925-1.825-4.875
			c0-5.25,4.575-10.024,9.55-10.024c3.925,0,6.775,3,6.775,7.125c0,3.8-2.5,7.649-5.95,9.175c-0.475,0.2-0.75,0.325-1.725,0.6
			c-1.3,0.75-1.825,1-3.75,1.726c3.925,1.825,7.75,2.95,9.975,2.95c1.475,0,2.375-0.7,2.75-2.176H72.692z M61.267,101.036
			c4.05,0,7.125-3.9,7.125-8.975c0-3.65-1.775-5.801-4.775-5.801c-3.8,0-6.975,4.025-6.975,8.875
			C56.642,98.812,58.392,101.036,61.267,101.036z"/>
		<path d="M80.667,107.986h-5.85l0.15-0.825h2.525l1.575-10.15c-1.225,2.875-3.75,5.226-5.65,5.226c-0.875,0-1.375-1.2-1.375-3.275
			c0-2.399,0.575-4.375,1.825-6.3c1.075-1.65,2.325-2.375,4-2.375c0.975,0,1.5,0.175,2.4,0.85l0.25-0.824h1.35l-2.675,16.85h1.625
			L80.667,107.986z M79.917,92.511c-0.875-0.925-1.475-1.274-2.2-1.274c-2,0-3.75,3.225-3.75,6.899c0,1.351,0.275,2.351,0.675,2.351
			c0.125,0,0.525-0.226,0.925-0.476c0.25-0.199,0.525-0.425,0.8-0.675c0.775-0.75,1.475-1.725,2.1-2.925
			C79.067,95.261,79.442,94.261,79.917,92.511z"/>
	</g>
	<g>
		<path d="M102.965,71.912c-1.475,0-1.75-0.15-2.575-1.475l-3.725-5.926h-1.95v6.476h1.875v0.925h-5.95v-0.925h1.875v-14.65H90.64
			v-0.925h6.95c2.425,0,3.8,0.675,4.55,2.225c0.325,0.676,0.5,1.426,0.5,2.226c0,2.425-1.35,3.975-3.75,4.325l3.601,5.55
			c0.6,0.925,1,1.225,1.625,1.225h0.975v0.95H102.965z M97.065,56.562h-2.35v6.8h2.4c1.9,0,3.225-1.4,3.225-3.45
			C100.34,57.762,99.165,56.562,97.065,56.562z"/>
		<path d="M113.59,62.938c-0.5-0.476-0.85-0.7-1.1-0.7c-0.451,0-0.9,0.425-2.275,2.1v6.65h2.4v0.925h-6.176v-0.925h1.9v-9h-2.176
			v-0.675l3.601-0.976h0.45v2.8c1.8-2.3,2.449-2.85,3.35-2.85c0.301,0,0.551,0.075,0.7,0.225l0.774,0.676L113.59,62.938z"/>
	</g>
	<g>
		<path d="M105.486,101.911h-2.201c-1.174,0-1.699-0.35-2.25-1.525l-2.774-5.875h-2l-1.025,6.476h1.9l-0.15,0.925h-5.7l0.125-0.925
			h1.9l2.325-14.65h-1.9l0.15-0.925h6.625c2.524,0,4.25,1.675,4.25,4.075c0,2.375-1.774,4.3-4.45,4.774l2.725,5.525
			c0.4,0.825,0.801,1.15,1.4,1.15h1.2L105.486,101.911z M96.46,93.361h2.025c2.4,0,4.049-1.65,4.049-4.05
			c0-1.9-0.824-2.75-2.674-2.75h-2.325L96.46,93.361z"/>
		<path d="M109.461,101.911h-1.701l1.601-9.925h-2.101v-0.476l3.426-1.175h0.625l-0.676,4.226c1.275-2.45,2.976-4.2,4.176-4.2
			c0.5,0,0.824,0.3,1.15,1l-1.775,1.85c-0.45-0.399-0.7-0.55-0.95-0.55c-0.5,0-1.175,0.725-1.976,2.15
			c-0.699,1.225-1.049,2.35-1.399,4.55L109.461,101.911z"/>
	</g>
	<g>
		<path fill="#929497" d="M61.473,137.996v-0.814h1.76l-1.54-3.96l-5.632-0.021l-1.606,3.96h1.826v0.836h-4.202v-0.836h1.144
			l5.72-14.146h0.792l5.5,14.146h1.254v0.836H61.473z M58.965,125.984l-2.486,6.182h4.84L58.965,125.984z"/>
		<path fill="#929497" d="M76.212,124.07c-0.902-0.792-1.144-0.968-2.178-1.496c-1.76,0.33-2.486,1.562-2.486,4.224v1.452h2.53
			v1.012h-2.53v7.92h2.112v0.814h-5.434v-0.814h1.672v-7.92h-1.914v-0.594l1.914-0.483v-1.805c0-2.771,1.804-4.642,4.466-4.642
			c1.078,0,2.046,0.264,3.058,0.836L76.212,124.07z"/>
		<path fill="#929497" d="M80.128,138.282c-0.968,0-1.782-0.132-3.08-0.462v-14.586h-1.914v-0.594l3.168-0.858h0.396v15.202
			c0.726,0.286,1.034,0.374,1.584,0.374c2.156,0,3.674-1.87,3.674-4.511c0-2.397-1.078-3.894-2.838-3.894h-1.606v-0.726
			c1.122-0.374,1.65-0.462,2.244-0.462c2.398,0,4.092,2.046,4.092,4.928C85.848,136.061,83.583,138.282,80.128,138.282z"/>
		<path fill="#929497" d="M89.5,132.364v0.242c0,2.75,1.452,4.664,3.542,4.664c0.88,0,1.474-0.221,2.706-1.013l0.418,0.814
			c-1.65,0.946-2.42,1.21-3.696,1.21c-2.794,0-4.774-2.156-4.774-5.192c0-3.08,2.002-5.323,4.73-5.323
			c2.376,0,4.004,1.628,4.004,4.004v0.594H89.5z M94.626,130.956c0-1.32-0.902-2.266-2.178-2.266c-1.606,0-2.728,1.078-2.926,2.794
			h5.104V130.956z"/>
		<path fill="#929497" d="M100.038,132.364v0.242c0,2.75,1.452,4.664,3.542,4.664c0.881,0,1.475-0.221,2.706-1.013l0.418,0.814
			c-1.649,0.946-2.42,1.21-3.696,1.21c-2.793,0-4.773-2.156-4.773-5.192c0-3.08,2.002-5.323,4.73-5.323
			c2.375,0,4.004,1.628,4.004,4.004v0.594H100.038z M105.164,130.956c0-1.32-0.902-2.266-2.178-2.266
			c-1.605,0-2.729,1.078-2.926,2.794h5.104V130.956z"/>
		<path fill="#929497" d="M108.486,137.996v-0.814h1.672v-13.947h-1.936v-0.594l3.168-0.858h0.418v15.399h1.65v0.814H108.486z"/>
		<path fill="#929497" d="M122.654,138.216h-0.418v-1.54c-1.21,1.21-1.98,1.606-3.102,1.606c-2.289,0-4.092-2.222-4.092-5.038
			c0-3.036,2.332-5.478,5.213-5.478c0.748,0,1.145,0.109,1.98,0.55v-5.082h-1.914v-0.594l3.168-0.858h0.418v14.981h1.914v0.616
			L122.654,138.216z M122.236,130.517c0-1.364-0.439-1.826-1.738-1.826c-2.134,0-3.563,1.693-3.563,4.224
			c0,2.464,1.077,3.938,2.882,3.938c0.682,0,1.012-0.133,1.781-0.727c0.133-0.11,0.353-0.286,0.639-0.506V130.517z"/>
		<path fill="#929497" d="M127.143,137.996v-0.814h1.672v-7.92H126.9v-0.594l3.168-0.857h0.396v9.371h1.672v0.814H127.143z
			 M129.54,125.192c-0.638,0-1.144-0.506-1.144-1.166c0-0.638,0.506-1.145,1.144-1.145c0.66,0,1.166,0.507,1.166,1.145
			C130.706,124.687,130.2,125.192,129.54,125.192z"/>
		<path fill="#929497" d="M140.387,137.996v-0.814h1.649v-6.445c0-1.166-0.595-1.893-1.562-1.893c-0.947,0-1.496,0.418-3.41,2.618
			v5.72h1.672v0.814h-4.994v-0.814h1.672v-7.92H133.5v-0.594l3.168-0.857h0.396v2.464c1.649-1.914,2.596-2.508,4.004-2.508
			c1.627,0,2.64,1.056,2.64,2.75v6.665h1.649v0.814H140.387z"/>
		<path fill="#929497" d="M154.994,129.438c0.527,0.615,0.703,1.144,0.703,2.046c0,2.332-1.605,3.806-4.201,3.806
			c-0.66,0-0.902-0.044-1.562-0.264c-0.66,0.682-0.924,1.1-0.924,1.496c0,0.374,0.221,0.571,0.639,0.571h5.5
			c1.055,0,1.672,0.748,1.672,2.024c0,2.486-2.508,4.51-5.61,4.51c-1.892,0-3.08-0.616-4.29-2.222
			c0.484-1.188,0.66-1.496,1.716-2.816c-0.638-0.132-0.968-0.33-1.649-1.1c0.748-1.32,1.078-1.716,2.31-2.75
			c-1.298-0.748-1.892-1.738-1.892-3.124c0-2.354,1.627-3.85,4.135-3.85c0.902,0,1.211,0.088,2.398,0.659h1.408l1.562-0.374v1.387
			H154.994z M154.443,138.7h-4.994c-0.571,0.813-0.726,1.231-0.726,1.826c0,1.298,1.231,2.222,2.992,2.222
			c1.937,0,3.563-1.342,3.563-2.904C155.279,139.14,154.949,138.7,154.443,138.7z M151.562,128.603
			c-1.475,0-2.398,1.122-2.398,2.903c0,1.782,0.924,2.926,2.398,2.926c1.451,0,2.397-1.144,2.397-2.926
			C153.96,129.725,153.014,128.603,151.562,128.603z"/>
		<path fill="#929497" d="M160.273,132.364v0.242c0,2.75,1.452,4.664,3.542,4.664c0.88,0,1.474-0.221,2.706-1.013l0.418,0.814
			c-1.65,0.946-2.42,1.21-3.695,1.21c-2.795,0-4.774-2.156-4.774-5.192c0-3.08,2.002-5.323,4.729-5.323
			c2.377,0,4.004,1.628,4.004,4.004v0.594H160.273z M165.399,130.956c0-1.32-0.901-2.266-2.178-2.266
			c-1.606,0-2.728,1.078-2.927,2.794h5.104V130.956z"/>
		<path fill="#929497" d="M175.652,137.996v-0.814h1.649v-6.445c0-1.166-0.595-1.893-1.562-1.893c-0.947,0-1.496,0.418-3.41,2.618
			v5.72h1.672v0.814h-4.994v-0.814h1.672v-7.92h-1.914v-0.594l3.168-0.857h0.396v2.464c1.649-1.914,2.596-2.508,4.004-2.508
			c1.627,0,2.64,1.056,2.64,2.75v6.665h1.649v0.814H175.652z"/>
	</g>
</g>
</svg>
